<svg width="17" height="21" viewBox="0 0 17 21" fill="none" xmlns="http://www.w3.org/2000/svg">
<path d="M8.22501 10.1649C6.86901 10.1649 5.35301 10.0149 4.38501 8.90891C3.57101 7.97891 3.30801 6.54091 3.58001 4.51691C3.96001 1.69091 5.69601 0.00390625 8.22601 0.00390625C10.756 0.00390625 12.493 1.69091 12.872 4.51691C13.144 6.54091 12.88 7.97691 12.066 8.90891C11.096 10.0149 9.58101 10.1639 8.22601 10.1639L8.22501 10.1649ZM14.074 20.0149H2.37601C1.71301 20.0149 1.12601 19.7349 0.72601 19.2289C0.30401 18.6949 0.15001 17.9589 0.31601 17.2609C1.15001 13.7309 4.40201 11.2639 8.22401 11.2639C12.046 11.2639 15.298 13.7299 16.134 17.2609C16.298 17.9589 16.144 18.6949 15.722 19.2279C15.322 19.7329 14.737 20.0129 14.074 20.0129V20.0149Z" fill="black"/>
</svg>

