<svg width="22" height="22" viewBox="0 0 22 22" fill="none" xmlns="http://www.w3.org/2000/svg">
<path fill-rule="evenodd" clip-rule="evenodd" d="M11.36 21.375H10.638C9.45505 21.375 8.48405 20.487 8.37605 19.311L8.36205 19.164C8.33705 18.877 8.15505 18.631 7.89005 18.52C7.60405 18.4 7.30805 18.455 7.09205 18.635L6.97605 18.732C6.10805 19.457 4.72305 19.395 3.91605 18.592L3.40605 18.082C2.57005 17.242 2.51005 15.928 3.26605 15.022L3.36405 14.904C3.55005 14.682 3.59405 14.381 3.48605 14.117C3.37605 13.845 3.12805 13.663 2.84005 13.637L2.69005 13.623C1.51005 13.516 0.623047 12.543 0.623047 11.361V10.639C0.623047 9.456 1.51105 8.485 2.68705 8.377L2.84305 8.363C3.12805 8.338 3.37305 8.156 3.48505 7.89C3.59505 7.62 3.55005 7.317 3.36505 7.095L3.27105 6.979C2.51405 6.071 2.57305 4.756 3.40805 3.919L3.92005 3.407C4.72405 2.603 6.10805 2.542 6.98005 3.267L7.09605 3.365C7.31405 3.549 7.62405 3.595 7.88605 3.487C8.15605 3.375 8.33805 3.129 8.36305 2.844L8.37705 2.691C8.48405 1.511 9.45705 0.625 10.639 0.625H11.361C12.544 0.625 13.515 1.513 13.623 2.689L13.637 2.845C13.662 3.13 13.843 3.375 14.109 3.485C14.386 3.602 14.689 3.547 14.903 3.368L15.023 3.266C15.89 2.543 17.277 2.604 18.083 3.406L18.593 3.918C19.429 4.756 19.489 6.071 18.733 6.978L18.633 7.096C18.445 7.316 18.399 7.618 18.51 7.884C18.622 8.154 18.87 8.334 19.156 8.362L19.308 8.376C20.488 8.483 21.375 9.456 21.375 10.638V11.361C21.375 12.544 20.487 13.515 19.311 13.623L19.156 13.637C18.872 13.661 18.626 13.842 18.516 14.107C18.403 14.379 18.449 14.681 18.633 14.902L18.733 15.022C19.489 15.927 19.429 17.242 18.593 18.082L18.083 18.592C17.276 19.396 15.893 19.456 15.023 18.732L14.908 18.636C14.691 18.453 14.378 18.406 14.118 18.514C13.845 18.628 13.663 18.874 13.638 19.16L13.624 19.31C13.517 20.483 12.544 21.37 11.362 21.37L11.36 21.375ZM7.20996 11C7.20996 8.90996 8.90996 7.20996 11 7.20996C13.09 7.20996 14.79 8.90996 14.79 11C14.79 13.09 13.09 14.79 11 14.79C8.90996 14.79 7.20996 13.09 7.20996 11ZM8.70996 11C8.70996 12.264 9.73796 13.29 11 13.29C12.262 13.29 13.29 12.264 13.29 11C13.29 9.73596 12.26 8.70996 11 8.70996C9.73996 8.70996 8.70996 9.73596 8.70996 11Z" fill="#171725"/>
</svg>

