<svg width="24" height="22" viewBox="0 0 24 22" fill="none" xmlns="http://www.w3.org/2000/svg">
<path d="M22.58 6.34986L12.475 0.896855C12.178 0.736855 11.821 0.736855 11.525 0.896855L1.42496 6.34986C0.938957 6.61386 0.757957 7.21986 1.01996 7.70586C1.19996 8.04086 1.54496 8.23086 1.89996 8.23086C2.05996 8.23086 2.22396 8.19286 2.37496 8.11086L3.10896 7.71486L4.69896 18.9649C4.91496 20.1789 6.00896 21.0269 7.35896 21.0269H16.641C17.991 21.0269 19.085 20.1789 19.303 18.9389L20.891 7.71386L21.628 8.11186C22.113 8.37486 22.72 8.19386 22.982 7.70786C23.245 7.22186 23.062 6.61486 22.578 6.35286L22.58 6.34986ZM12 14.4349C10.205 14.4349 8.74996 12.9799 8.74996 11.1849C8.74996 9.38986 10.205 7.93486 12 7.93486C13.795 7.93486 15.25 9.38986 15.25 11.1849C15.25 12.9799 13.795 14.4349 12 14.4349Z" fill="#171725"/>
</svg>

