<svg width="20" height="20" viewBox="0 0 20 20" fill="none" xmlns="http://www.w3.org/2000/svg">
<path d="M17.708 20H2.292C1.028 20 0 18.972 0 17.708V5.375C0 4.11 1.028 3.083 2.292 3.083H4.438C5.633 1.17 7.722 0 10 0C12.277 0 14.367 1.17 15.562 3.083H17.708C18.972 3.083 20 4.11 20 5.375V17.708C20 18.972 18.972 20 17.708 20ZM2.292 4.583C1.855 4.583 1.5 4.938 1.5 5.375V17.708C1.5 18.145 1.855 18.5 2.292 18.5H17.708C18.145 18.5 18.5 18.145 18.5 17.708V5.375C18.5 4.938 18.145 4.583 17.708 4.583H15.258C14.941 4.633 14.626 4.488 14.476 4.201C13.596 2.536 11.882 1.501 10 1.501C8.117 1.501 6.402 2.536 5.524 4.203C5.364 4.505 5.022 4.663 4.691 4.583H2.293H2.292Z" fill="white"/>
<path d="M9.99989 6.16699C7.31989 6.16699 5.13989 8.34699 5.13989 11.027C5.13989 13.707 7.31989 15.887 9.99989 15.887C12.6799 15.887 14.8599 13.707 14.8599 11.027C14.8599 8.34699 12.6799 6.16699 9.99989 6.16699V6.16699ZM11.9999 11.75H10.7499V13C10.7499 13.414 10.4139 13.75 9.99989 13.75C9.58589 13.75 9.24989 13.414 9.24989 13V11.75H7.99989C7.58589 11.75 7.24989 11.414 7.24989 11C7.24989 10.586 7.58589 10.25 7.99989 10.25H9.24989V8.99999C9.24989 8.58599 9.58589 8.24999 9.99989 8.24999C10.4139 8.24999 10.7499 8.58599 10.7499 8.99999V10.25H11.9999C12.4139 10.25 12.7499 10.586 12.7499 11C12.7499 11.414 12.4139 11.75 11.9999 11.75Z" fill="white"/>
</svg>
