<svg width="16" height="16" viewBox="0 0 16 16" fill="none" xmlns="http://www.w3.org/2000/svg">
<path d="M9.41412 8L15.2071 2.207C15.5971 1.817 15.5971 1.184 15.2071 0.792997C14.8171 0.401997 14.1841 0.402997 13.7931 0.792997L8.00012 6.586L2.20712 0.792997C1.81712 0.402997 1.18412 0.402997 0.793119 0.792997C0.402119 1.183 0.403119 1.816 0.793119 2.207L6.58612 8L0.793119 13.793C0.403119 14.183 0.403119 14.816 0.793119 15.207C0.988119 15.402 1.24312 15.5 1.50012 15.5C1.75712 15.5 2.01212 15.402 2.20712 15.207L8.00012 9.414L13.7931 15.207C13.9881 15.402 14.2431 15.5 14.5001 15.5C14.7571 15.5 15.0121 15.402 15.2071 15.207C15.5971 14.817 15.5971 14.184 15.2071 13.793L9.41412 8Z" fill="#696974"/>
</svg>
