<svg width="14" height="14" viewBox="0 0 14 14" fill="none" xmlns="http://www.w3.org/2000/svg">
<path d="M8.364 0.494673L5.59867 0.488007H5.59734C2.68134 0.488007 0.397339 2.77267 0.397339 5.68934C0.397339 8.42134 2.52134 10.4933 5.37401 10.6027V13.1547C5.37401 13.2267 5.40334 13.3453 5.45401 13.4233C5.54867 13.5733 5.71001 13.6547 5.87534 13.6547C5.96734 13.6547 6.06001 13.6293 6.14334 13.576C6.31934 13.464 10.4587 10.816 11.5353 9.90534C12.8033 8.83201 13.562 7.25867 13.564 5.69734V5.68601C13.56 2.77467 11.2773 0.494673 8.364 0.494006V0.494673ZM10.8887 9.14267C10.1327 9.78267 7.64734 11.4127 6.37401 12.238V10.1133C6.37401 9.83734 6.15067 9.61334 5.87401 9.61334H5.61001C3.17001 9.61334 1.39801 7.96267 1.39801 5.68934C1.39801 3.33334 3.24334 1.48801 5.59801 1.48801L8.36267 1.49467H8.364C10.7187 1.49467 12.564 3.33867 12.5653 5.69201C12.5633 6.96534 11.9373 8.25467 10.8893 9.14267H10.8887Z" fill="#6C757D"/>
</svg>
