<svg width="24" height="24" viewBox="0 0 24 24" fill="none" xmlns="http://www.w3.org/2000/svg">
<path d="M6 3C5.20435 3 4.44129 3.31607 3.87868 3.87868C3.31607 4.44129 3 5.20435 3 6V18C3 18.7956 3.31607 19.5587 3.87868 20.1213C4.44129 20.6839 5.20435 21 6 21H11C11.2652 21 11.5196 20.8946 11.7071 20.7071C11.8946 20.5196 12 20.2652 12 20C12 19.7348 11.8946 19.4804 11.7071 19.2929C11.5196 19.1054 11.2652 19 11 19H6C5.73478 19 5.48043 18.8946 5.29289 18.7071C5.10536 18.5196 5 18.2652 5 18V6C5 5.73478 5.10536 5.48043 5.29289 5.29289C5.48043 5.10536 5.73478 5 6 5H11C11.2652 5 11.5196 4.89464 11.7071 4.70711C11.8946 4.51957 12 4.26522 12 4C12 3.73478 11.8946 3.48043 11.7071 3.29289C11.5196 3.10536 11.2652 3 11 3H6Z" fill="#44444F"/>
<path d="M15.293 7.293C15.4805 7.10553 15.7348 7.00021 16 7.00021C16.2652 7.00021 16.5195 7.10553 16.707 7.293L20.707 11.293C20.8945 11.4805 20.9998 11.7348 20.9998 12C20.9998 12.2652 20.8945 12.5195 20.707 12.707L16.707 16.707C16.5184 16.8892 16.2658 16.99 16.0036 16.9877C15.7414 16.9854 15.4906 16.8802 15.3052 16.6948C15.1198 16.5094 15.0146 16.2586 15.0123 15.9964C15.01 15.7342 15.1108 15.4816 15.293 15.293L17.586 13H10C9.73478 13 9.48043 12.8946 9.29289 12.7071C9.10536 12.5196 9 12.2652 9 12C9 11.7348 9.10536 11.4804 9.29289 11.2929C9.48043 11.1054 9.73478 11 10 11H17.586L15.293 8.707C15.1055 8.51947 15.0002 8.26516 15.0002 8C15.0002 7.73484 15.1055 7.48053 15.293 7.293V7.293Z" fill="#44444F"/>
</svg>
