<svg width="40" height="40" viewBox="0 0 40 40" fill="none" xmlns="http://www.w3.org/2000/svg">
<circle cx="20" cy="20" r="19.5" stroke="#FF6600"/>
<path d="M27.25 11.018H12.75C11.233 11.018 10 12.252 10 13.77V26.265C10 27.783 11.233 29.018 12.75 29.018H27.25C28.767 29.018 30 27.783 30 26.265V13.77C30 12.252 28.767 11.018 27.25 11.018ZM12.75 12.518H27.25C27.94 12.518 28.5 13.078 28.5 13.768V14.482L20.45 19.849C20.177 20.029 19.824 20.031 19.55 19.847L11.5 14.482V13.768C11.5 13.078 12.06 12.518 12.75 12.518V12.518ZM27.25 27.516H12.75C12.06 27.516 11.5 26.956 11.5 26.266V16.24L18.74 21.07C19.123 21.326 19.562 21.454 20 21.454C20.44 21.454 20.877 21.326 21.26 21.071L28.5 16.241V26.263C28.5 26.953 27.94 27.513 27.25 27.513V27.516Z" fill="#FF6600"/>
</svg>
