<svg width="40" height="40" viewBox="0 0 40 40" fill="none" xmlns="http://www.w3.org/2000/svg">
<circle cx="20" cy="20" r="19.5" stroke="#FF6600"/>
<path d="M31.24 11.26H28.815V8.832C28.815 8.418 28.479 8.082 28.065 8.082C27.651 8.082 27.315 8.418 27.315 8.832V11.26H24.89C24.476 11.26 24.14 11.595 24.14 12.01C24.14 12.425 24.476 12.76 24.89 12.76H27.316V15.184C27.316 15.598 27.652 15.934 28.066 15.934C28.48 15.934 28.816 15.598 28.816 15.184V12.76H31.241C31.656 12.76 31.991 12.423 31.991 12.01C31.991 11.597 31.655 11.26 31.241 11.26H31.24ZM25.01 18.866C25.03 16.432 24.228 14.269 22.752 12.776C21.428 11.434 19.636 10.692 17.706 10.683H17.693C15.763 10.693 13.971 11.433 12.647 12.775C11.172 14.27 10.37 16.433 10.39 18.867C10.426 23 8.46704 24.56 8.39004 24.62C8.13004 24.813 8.02304 25.15 8.12404 25.458C8.22604 25.766 8.51404 25.973 8.83604 25.973H13.552C13.662 28.199 15.492 29.98 17.746 29.98C20 29.98 21.829 28.2 21.94 25.973H26.565C26.885 25.973 27.169 25.767 27.272 25.463C27.375 25.159 27.272 24.82 27.017 24.625C26.935 24.561 24.974 23 25.009 18.865L25.01 18.866ZM17.745 28.48C16.319 28.48 15.159 27.37 15.051 25.972H20.439C20.331 27.372 19.171 28.479 17.745 28.479V28.48ZM10.455 24.473C11.157 23.378 11.912 21.569 11.889 18.855C11.872 16.793 12.503 15.055 13.714 13.83C14.757 12.774 16.172 12.19 17.7 12.184C19.227 12.191 20.643 12.774 21.685 13.83C22.895 15.056 23.525 16.793 23.508 18.855C23.486 21.569 24.24 23.378 24.945 24.473H10.455V24.473Z" fill="#FF6600"/>
</svg>
