<svg width="24" height="24" viewBox="0 0 24 24" fill="none" xmlns="http://www.w3.org/2000/svg">
<path d="M8.8 7.20001H5.6V3.90001C5.6 3.50001 5.3 3.10001 4.8 3.10001C4.3 3.10001 4.1 3.50001 4.1 3.90001V7.20001H0.8C0.4 7.20001 0 7.50001 0 8.00001C0 8.50001 0.3 8.80001 0.8 8.80001H4.1V12.1C4.1 12.5 4.4 12.9 4.9 12.9C5.4 12.9 5.7 12.6 5.7 12.1V8.70001H9C9.4 8.70001 9.8 8.40001 9.8 7.90001C9.8 7.40001 9.3 7.20001 8.8 7.20001V7.20001ZM23.8 2.30001V2.20001H23.7C23.6 2.20001 14.5 3.40001 9.3 13.9C5.5 21.5 5.7 23.8 6 23.8C6.3 23.9 9.4 17.3 12.7 14.6C17.9 13.5 19.3 11 19.3 11C19.3 11 17.8 11.2 17.2 11.2C16.4 11.2 15.8 11 15.5 10.9C16.8 9.70001 17.9 9.40001 19 9.20001C19.9 9.00001 20.8 8.80001 22 8.00001C24.2 6.40001 23.9 2.50001 23.8 2.30001V2.30001Z" fill="white"/>
</svg>
